<svg xmlns="http://www.w3.org/2000/svg" width="16.867" height="15.184" viewBox="0 0 16.867 15.184">
  <g id="Group_434" data-name="Group 434" transform="translate(-2 -1.996)">
    <path id="Path_373" data-name="Path 373" d="M12.964,5.373H4.876l1.94-1.931a.847.847,0,0,0-1.2-1.2L2.245,5.617a.872.872,0,0,0,0,1.2l3.373,3.373a.843.843,0,0,0,1.192.005l.005-.005A.843.843,0,0,0,6.821,9l-.005-.005L4.876,7.059h8.088a4.217,4.217,0,0,1,0,8.434H2.843a.843.843,0,1,0,0,1.687h10.12a5.9,5.9,0,1,0,0-11.807Z" fill="#848593"/>
  </g>
</svg>
