<svg width="50" height="50" viewBox="0 0 50 50" fill="none" xmlns="http://www.w3.org/2000/svg">
<path d="M48.4375 12.5V14.0625C48.4375 14.2697 48.3552 14.4684 48.2087 14.615C48.0622 14.7615 47.8634 14.8438 47.6562 14.8438H45.3125V16.0157C45.3125 16.6628 44.7878 17.1875 44.1406 17.1875H5.85938C5.21221 17.1875 4.6875 16.6628 4.6875 16.0157V14.8438H2.34375C2.13655 14.8438 1.93784 14.7615 1.79132 14.615C1.64481 14.4684 1.5625 14.2697 1.5625 14.0625V12.5C1.5625 12.3455 1.60835 12.1944 1.69424 12.0659C1.78013 11.9374 1.9022 11.8373 2.04502 11.7782L24.7013 3.1844C24.8925 3.1052 25.1075 3.1052 25.2987 3.1844L47.955 11.7782C48.0978 11.8373 48.2199 11.9374 48.3058 12.0659C48.3917 12.1944 48.4375 12.3455 48.4375 12.5ZM46.0938 42.1875H3.90625C2.61182 42.1875 1.5625 43.2368 1.5625 44.5313V46.0938C1.5625 46.301 1.64481 46.4997 1.79132 46.6462C1.93784 46.7927 2.13655 46.875 2.34375 46.875H47.6562C47.8634 46.875 48.0622 46.7927 48.2087 46.6462C48.3552 46.4997 48.4375 46.301 48.4375 46.0938V44.5313C48.4375 43.2368 47.3882 42.1875 46.0938 42.1875ZM9.375 18.75V37.5H5.85938C5.21221 37.5 4.6875 38.0247 4.6875 38.6719V40.625H45.3125V38.6719C45.3125 38.0247 44.7878 37.5 44.1406 37.5H40.625V18.75H34.375V37.5H28.125V18.75H21.875V37.5H15.625V18.75H9.375Z" fill="white"/>
</svg>
